<?xml version="1.0" encoding="UTF-8" standalone="no"?>
<svg
   xmlns="http://www.w3.org/2000/svg"
   width="351.17529"
   height="977.50238"
   viewBox="0 0 772.58564 2150.5052">
  <path
     style="fill:currentColor"
     d="m 13.822891,2124.4735 c 0.029,-30.833 5.7903,-46.6547 21.7894,-59.8425 20.2845,-16.7202 0.2687,-15.8598 351.656099,-15.1168 318.5932,0.6736 318.5932,0.6736 328.9924,6.2383 24.3526,13.0312 34.2984,32.0033 36.0259,68.721 1.2248,26.0318 1.2248,26.0318 -368.6319,26.0318 -369.856699,0 -369.856699,0 -369.831899,-26.0318 z m 728.864099,-2.8644 c 0,-21.1577 -3.8666,-32.6851 -15.351,-45.7651 -15.8124,-18.0092 6.5771,-16.9717 -349.5101,-16.1957 -320.416599,0.6982 -320.416599,0.6982 -331.428499,8.4301 -16.3882,11.5066 -23.1719,25.6794 -24.512,51.2117 -1.1052,21.0564 -1.1052,21.0564 359.848199,21.0564 360.9534,0 360.9534,0 360.9534,-18.7374 z M 46.010091,2012.7275 c -16.9848,-20.9205 -32.6166,-58.1805 -41.5046,-98.9306 -3.58200005,-16.4228 -4.57480005,-31.9913 -4.50180005,-70.5932 0.1009,-53.3976 5.08730005,-84.3616 20.63750005,-128.1528 13.0887,-36.8595 44.3569,-95.5758 59.8999,-112.4821 5.2535,-5.7143 5.2535,-5.7143 309.365599,-5.7143 304.1121,0 304.1121,0 309.1981,8.254 2.7974,4.5396 11.3729,20.8254 19.0568,36.1904 60.9014,121.7815 70.1898,219.1271 30.3805,318.3972 -8.7726,21.8756 -25.6891,52.8201 -32.7178,59.8487 -3.5676,3.5677 -37.7418,3.9763 -332.5137,3.9763 -328.537499,0 -328.537499,0 -337.300499,-10.7936 z m 675.248099,-17.6549 c 34.5476,-56.2399 50.0026,-141.5302 37.9811,-209.6036 -8.2468,-46.6992 -28.4863,-101.3728 -58.3056,-157.5034 -12.4801,-23.4921 -12.4801,-23.4921 -311.6464,-23.4921 -299.166399,0 -299.166399,0 -312.160399,18.4127 -25.5943,36.2676 -52.4794,99.6831 -62.1134,146.5106 -10.3596,50.3541 -9.4085,111.6063 2.467,158.8863 6.2603,24.9243 23.719,64.5582 34.4434,78.1922 5.4325,6.9062 5.4325,6.9062 332.155799,6.2618 326.7232,-0.6445 326.7232,-0.6445 337.1785,-17.6645 z M 90.978291,1567.8205 c -34.0868,-14.8372 -32.4331,-63.1117 2.6169,-76.3879 16.260299,-6.1592 593.326799,-4.5536 604.647399,1.6823 13.9574,7.6884 20.3174,19.2351 20.3174,36.8867 0,18.2915 -4.8536,26.7208 -20.5562,35.7 -9.92,5.6725 -9.92,5.6725 -304.5231,5.6149 -242.0556,-0.047 -296.012199,-0.6709 -302.502399,-3.496 z m 608.264899,-13.034 c 17.3812,-14.6253 14.678,-43.0924 -5.0612,-53.2999 -9.8474,-5.0923 -591.5419,-5.5087 -601.577499,-0.4307 -15.176,7.6792 -21.5808,27.4947 -14.0301,43.4067 8.5227,17.9603 -15.2963,16.6937 315.346299,16.7688 297.5829,0.068 297.5829,0.068 305.3225,-6.4449 z m -577.5449,-110.9479 c 71.9868,-124.924 122.736,-272.1174 138.7874,-402.5396 3.2038,-26.0318 3.2038,-26.0318 136.0359,-26.0318 132.8321,0 132.8321,0 132.8321,11.4453 0,38.9219 27.5879,161.614 55.3891,246.3325 22.6716,69.0873 49.9967,131.272 73.9716,168.3396 5.677,8.7773 10.3218,16.4916 10.3218,17.1429 0,0.6513 -125.209,1.1841 -278.2423,1.1841 -278.2423,0 -278.2423,0 -269.0956,-15.873 z m 529.5601,5.6638 c 0,-1.4245 -2.8966,-7.1787 -6.437,-12.787 -17.7233,-28.0755 -45.4926,-91.9293 -65.1038,-149.7022 -24.9354,-73.4571 -54.1477,-195.7301 -57.187,-239.365 -1.5478,-22.2223 -1.5478,-22.2223 -126.3849,-22.2223 -124.8372,0 -124.8372,0 -127.9808,25.1889 -6.7077,53.7482 -29.5867,149.7221 -48.1868,202.1368 -15.0751,42.4815 -32.9182,83.1347 -60.6606,138.2079 -15.7817,31.3291 -28.694,57.9005 -28.694,59.0476 0,1.147 117.1429,2.0855 260.3175,2.0855 175.2333,0 260.3174,-0.8466 260.3174,-2.5902 z M 188.75269,987.68417 c -19.5165,-10.3617 -28.3931,-23.7509 -29.7368,-44.85412 -2.4097,-37.84406 23.2185,-61.88269 66.2108,-62.10395 12.0635,-0.0621 12.0635,-0.0621 12.0635,-59.74463 0,-59.68254 0,-59.68254 153.6508,-59.68254 153.6508,0 153.6508,0 153.6508,59.68254 0,59.68254 0,59.68254 12.5734,59.68254 21.4921,0 36.7477,4.6015 48.442,14.61143 33.6682,28.81869 24.2791,81.24803 -17.2008,96.05083 -7.6236,2.7206 -47.1626,3.4228 -197.7489,3.512 -188.22,0.1115 -188.22,0.1115 -201.9048,-7.1541 z m 404.5352,-8.6205 c 28.5214,-17.4266 32.4417,-51.551 8.5608,-74.51766 -12.1411,-11.67629 -19.0243,-13.72327 -46.1458,-13.72327 -18.7302,0 -18.7302,0 -18.7302,-60.97318 0,-60.97318 0,-60.97318 -145.3968,-60.31746 -145.3968,0.65572 -145.3968,0.65572 -146.0777,60.97318 -0.6809,60.31746 -0.6809,60.31746 -21.0536,60.31746 -15.2085,0 -22.8411,1.2593 -30.1107,4.968 -35.039,17.87558 -36.8209,62.97083 -3.2903,83.27053 9.4212,5.7037 9.4212,5.7037 201.1672,5.7037 191.746,0 191.746,0 201.0771,-5.7013 z m -359.86,-245.64954 c -5.8796,-2.9283 -13.2299,-9.67441 -17.3265,-15.90212 -12.9947,-19.75456 -5.7382,-53.66864 13.5506,-63.33094 3.5026,-1.75454 6.748,-3.41707 7.2119,-3.69448 0.464,-0.27741 -5.9535,-8.8867 -14.2611,-19.13173 -29.8484,-36.80965 -49.0573,-79.70321 -52.7091,-117.69971 -3.3023,-34.35969 10.6587,-86.88551 37.795,-142.19748 14.9141,-30.39921 48.4445,-84.83837 54.5955,-88.63992 1.4857,-0.91822 5.6302,5.2573 9.601,14.30578 20.9262,47.6868 48.5694,94.99558 60.9505,104.31118 21.9508,16.51589 10.6634,-27.50933 -26.0552,-101.62534 -24.1721,-48.79119 -24.1721,-48.79119 -12.8479,-64.7619 14.4913,-20.43724 39.5875,-56.77312 54.6652,-79.1477 11.7677,-17.46267 11.7677,-17.46267 4.0225,-24.12698 -26.9772,-23.21253 -36.0307,-62.401066 -21.3016,-92.204906 26.648,-53.92128 102.9971,-52.4018 127.6103,2.53967 11.8779,26.51396 3.5577,63.561786 -18.5186,82.458266 -9.9079,8.48078 -9.9079,8.48078 16.1993,47.68632 14.3589,21.56304 28.3147,43.20554 31.0128,48.09442 2.6982,4.88889 5.5559,9.46032 6.3505,10.15873 2.2196,1.95094 32.4312,50.92572 53.2673,86.34921 25.9439,44.10745 58.4659,109.31928 65.8618,132.06349 10.5603,32.47515 7.2774,62.9461 -11.7403,108.9718 -8.7791,21.24683 -31.7453,63.16612 -42.5663,77.69486 -10.0088,13.43817 -10.0333,13.84706 -1.0532,17.60924 16.39,6.86652 24.9447,20.45328 24.9447,39.61775 0,17.06497 -5.5362,28.25758 -18.3807,37.16033 -10.3878,7.19998 -10.3878,7.19998 -165.5274,7.864 -150.8155,0.64551 -155.4241,0.52226 -165.351,-4.42184 z m 324.2268,-9.61554 c 29.0701,-18.07749 19.1118,-61.27667 -15.186,-65.87698 -9.9356,-1.33264 -9.9356,-1.33264 3.7441,-20.39936 41.9308,-58.44284 67.6087,-124.29516 63.5624,-163.00889 -4.3495,-41.61305 -67.4328,-157.64657 -165.1059,-303.6906 -27.1764,-40.63492 -27.1764,-40.63492 -21.4047,-44.39912 19.2922,-12.58212 30.2654,-30.996606 31.7963,-53.358406 1.4883,-21.7382 -7.3568,-39.83295 -26.0192,-53.2285 -12.0454,-8.64593 -13.4425,-9.01305 -34.2183,-8.99141 -29.4965,0.0307 -44.3477,9.17014 -55.7505,34.30882 -13.9445,30.74211 2.3791,76.516356 31.0614,87.101596 3.9627,1.46249 1.6411,5.94877 -16.9886,32.82891 -66.6295,96.13668 -62.2812,83.12731 -41.4658,124.05841 33.8318,66.52678 46.9708,108.82511 37.3898,120.36949 -13.9664,16.82847 -40.7988,-13.83586 -73.8567,-84.40408 -6.7071,-14.31746 -12.7232,-26.03175 -13.3691,-26.03175 -3.1868,0 -34.3014,52.07865 -47.4673,79.44942 -30.6578,63.73453 -40.9974,111.77359 -32.7523,152.1716 8.122,39.795 30.1286,78.39383 64.3557,112.87789 12.973,13.07035 12.973,13.07035 1.9485,14.31297 -20.6011,2.32205 -34.8559,24.60442 -28.7225,44.89729 3.4457,11.40036 13.6776,22.45422 22.6041,24.42004 3.7998,0.83677 8.0515,1.92526 9.4483,2.41882 1.3969,0.49356 68.8254,0.67931 149.8413,0.41277 147.3016,-0.48462 147.3016,-0.48462 156.555,-6.23893 z"/>
</svg>
