<?xml version="1.0" encoding="UTF-8" standalone="no"?>
<svg
   xmlns="http://www.w3.org/2000/svg"
   width="397.18979"
   height="1150.2979"
   viewBox="0 0 873.81754 2530.6553">

  <path
     style="fill:currentColor"
     d="m 11.182522,2513.3299 c 0,-23.4867 5.7363,-38.9946 19.41028,-52.4751 20.86761,-20.5725 -10.75957,-19.0913 407.073858,-19.0635 372.246,0.025 372.246,0.025 384.9444,5.9507 25.3257,11.8185 39.3651,36.119 39.3651,68.1363 0,14.7771 0,14.7771 -425.3968,14.7771 -425.396838,0 -425.396838,0 -425.396838,-17.3255 z m 840.634938,-5.6132 c 0,-22.321 -11.2302,-40.7704 -31.01,-50.9447 -9.1466,-4.7048 -20.4052,-4.8468 -384.378,-4.8468 -418.602978,0 -383.312508,-1.5985 -401.173618,18.1716 -10.75414,11.9036 -12.84693,16.8433 -15.23564,35.962 -1.8039,14.4379 -1.8039,14.4379 414.996658,14.4379 416.8006,0 416.8006,0 416.8006,-12.78 z M 47.628952,2403.0363 c -31.11026,-41.8591 -47.80386982,-95.9367 -47.62756982,-154.2857 0.10578,-35.013 2.20538002,-47.1269 14.30580982,-82.5397 12.15328,-35.5674 45.57525,-91.5943 71.58406,-120 7.55751,-8.2539 7.55751,-8.2539 354.573508,-8.2539 347.016,0 347.016,0 358.7682,15.873 38.7697,52.3642 66.0365,119.5676 73.0741,180.1031 6.9026,59.3742 -10.2969,129.0497 -42.5061,172.1926 -9.5439,12.7837 -9.5439,12.7837 -389.9594,12.7837 -380.415578,0 -380.415578,0 -392.212608,-15.8731 z m 778.083408,-7.619 c 24.7971,-36.8546 35.9736,-72.874 38.023,-122.5397 2.8129,-68.1673 -17.4952,-132.1341 -64.3022,-202.5397 -16.4621,-24.7619 -16.4621,-24.7619 -359.0723,-24.7619 -342.610208,0 -342.610208,0 -356.438098,17.1429 -27.97867,34.686 -50.27333,75.2109 -64.38089,117.0248 -23.0909898,68.4402 -9.5732298,154.2455 33.97719,215.6736 11.25343,15.873 11.25343,15.873 386.383398,15.873 375.1299,0 375.1299,0 385.8099,-15.873 z M 92.198912,2004.6016 c -22.91542,-13.2901 -25.9278,-45.3991 -5.90829,-62.9765 3.03157,-4.1641 12.51527,-7.6808 13.780778,-7.6452 3.97102,-2.4741 684.03276,-3.6956 692.82456,0.8779 22.5017,11.7051 29.4101,41.7145 13.8578,60.1973 -13.4745,16.0136 11.9192,14.9709 -363.0642,14.907 -342.34832,-0.058 -342.34832,-0.058 -351.490648,-5.3605 z m 705.506448,-13.2792 c 8.2845,-9.0402 8.8955,-10.7844 7.794,-22.248 -1.3408,-13.9539 -6.7137,-21.507 -18.9972,-26.7061 -12.1505,-5.1427 -672.45705,-5.1427 -684.60757,0 -11.893038,5.0338 -17.490528,12.5915 -18.956158,25.5946 -1.51379,13.4303 2.87046,21.8433 15.3662,29.4865 7.961108,4.8696 14.625828,4.9521 349.263728,4.3232 341.1478,-0.641 341.1478,-0.641 350.137,-10.4502 z M 133.25337,1862.3872 c 56.81371,-113.4604 100.54644,-222.0964 117.60246,-292.135 17.94197,-73.6766 35.57049,-197.2838 43.67851,-306.2635 1.74778,-23.4921 1.74778,-23.4921 142.37262,-23.4921 140.6248,0 140.6248,0 140.6285,8.254 0.023,47.9715 29.4172,226.2067 53.32,323.3014 28.0479,113.9324 81.9135,228.6723 144.2059,307.1748 7.7587,9.7778 15.2,19.2063 16.5361,20.9524 1.9405,2.536 -66.097,3.1746 -338.2142,3.1746 -340.64336,0 -340.64336,0 -320.12989,-40.9666 z m 632.12889,20.0142 c -54.0048,-71.5712 -105.4003,-174.22 -130.5338,-260.7064 -25.8615,-88.9918 -53.5672,-237.566 -63.0336,-338.0238 -3.2308,-34.2857 -3.2308,-34.2857 -135.2649,-34.2857 -132.03411,0 -132.03411,0 -135.13077,38.0952 -7.33293,90.21 -22.73217,199.756 -37.51211,266.8511 -14.99085,68.0525 -60.85262,187.1247 -112.03028,290.8674 -23.67701,47.9959 -23.67701,47.9959 298.98646,47.9959 322.6634,0 322.6634,0 314.519,-10.7937 z M 206.43958,1213.0865 c -41.65165,-21.7591 -48.60511,-84.5025 -12.76474,-115.1805 13.04913,-11.1696 25.06267,-14.8697 48.27852,-14.8697 18.11804,0 18.11804,0 18.11804,-104.3199 0,-104.31986 0,-104.31986 -10.97292,-118.73015 -73.11792,-96.0225 -142.0404,-212.95505 -164.873678,-279.72153 -7.54223,-22.05412 -8.28038,-26.92935 -8.28038,-54.68874 0,-38.26756 6.30872,-54.69885 28.965528,-75.44165 29.97834,-27.44582 65.91864,-38.18203 129.12638,-38.57306 43.80622,-0.27101 43.80622,-0.27101 43.80952,-24.00615 0.003,-25.97478 3.49384,-35.79068 14.51081,-40.81036 8.69272,-3.96066 282.5719,-3.83327 291.2824,0.13562 10.1449,4.62235 14.2097,16.61541 14.2135,41.93669 0,22.47332 0,22.47332 43.8095,22.74433 48.6452,0.30095 70.5574,4.39819 99.6792,18.63852 55.3812,27.08102 73.1297,80.61326 49.7253,149.97936 -21.2525,62.98855 -84.2777,171.11475 -157.6364,270.44174 -17.8032,24.10527 -17.8032,24.10527 -17.8032,128.26028 0,104.155 0,104.155 21.0887,104.155 17.5996,0 23.2726,1.0883 34.2897,6.5784 52.4421,26.133 45.829,111.0986 -9.9479,127.8098 -6.2953,1.8861 -77.277,2.7547 -225.1177,2.7547 -215.92327,0 -215.92327,0 -229.50018,-7.0927 z m 451.35308,-4.2716 c 24.6618,-7.3237 39.1041,-28.4249 39.1041,-57.1337 0,-41.0452 -22.4244,-61.0259 -68.4898,-61.0259 -22.9387,0 -22.9387,0 -22.9182,-108.5714 0.02,-108.5714 0.02,-108.5714 25.7623,-144.12696 92.9663,-128.40932 150.574,-234.80615 159.8136,-295.16331 8.6867,-56.7452 -20.9042,-98.49958 -81.3677,-114.8144 -21.1892,-5.71746 -67.3543,-10.82847 -81.7616,-9.05194 -42.2279,5.20708 -40.2449,6.50446 -40.2449,-26.32996 0,-27.31423 -0.4855,-30.48317 -5.3443,-34.8817 -5.0883,-4.60635 -11.6873,-4.87396 -137.7778,-5.58748 -72.8384,-0.41219 -136.111,-0.0815 -140.60578,0.73468 -14.60874,2.65295 -15.95467,5.98707 -15.95467,39.52229 0,33.37089 3.35528,31.24424 -41.92193,26.57112 -15.7266,-1.62316 -58.5977,3.16158 -79.35718,8.85687 -77.920378,21.37714 -102.136718,78.05059 -69.496268,162.64196 23.704788,61.4336 86.820928,167.04422 152.333148,254.89514 20.66445,27.71074 20.66445,27.71074 20.66445,136.50789 0,108.7972 0,108.7972 -22.22222,108.853 -44.54225,0.1118 -67.25055,20.1939 -67.63721,59.815 -0.28947,29.6621 16.4989,53.4876 41.91848,59.4893 4.71672,1.1136 101.797,2.1418 215.73398,2.2847 175.7069,0.2205 209.0728,-0.3086 219.7695,-3.4852 z M 415.32436,314.67819 c -23.7145,-5.14565 -48.5863,-17.36546 -48.5863,-23.87101 0,-2.92945 8.255,-14.15916 18.9322,-25.75436 18.3908,-19.97224 31.8615,-41.62428 31.8615,-51.21273 0,-8.49117 -7.3211,-19.09193 -15.0447,-21.78441 -15.1191,-5.27054 -36.0092,6.64646 -66.7819,38.09657 -15.87335,16.22283 -20.91635,16.03063 -28.44567,-1.08422 -14.03103,-31.89382 -18.38362,-78.05101 -10.36752,-109.94261 5.28011,-21.006556 16.55734,-44.344526 21.42418,-44.336756 2.18761,0.004 13.69181,9.28783 25.56481,20.63187 31.8629,30.443376 52.5661,38.461256 66.617,25.799366 13.8158,-12.45005 5.1803,-36.459056 -24.6704,-68.590456 -22.0007,-23.68168 -23.3878,-28.89064 -9.5657,-35.92209 40.0409,-20.3691603 87.5962,-22.1937003 131.1375,-5.03132 23.4899,9.25885 23.4279,11.87143 -0.9692,40.85518 -24.0458,28.5664 -31.2385,48.512966 -23.0268,63.856746 11.1905,20.90953 37.8319,11.60613 75.0013,-26.191016 18.8694,-19.18821 22.6432,-19.44498 30.5887,-2.0813 20.2228,44.194006 20.0312,100.893316 -0.4807,142.222226 -7.6756,15.46555 -11.7746,15.34294 -27.5843,-0.82506 -37.1214,-37.96267 -66.7139,-48.91777 -77.5328,-28.70253 -8.6887,16.2351 -2.1196,33.78207 25.4279,67.92107 9.9947,12.38623 17.8285,24.20914 17.4085,26.27309 -0.957,4.70225 -24.0767,14.2208 -47.458,19.53877 -21.3057,4.84589 -41.5403,4.88894 -63.4496,0.13511 z m 62.3719,-8.82529 c 5.8525,-1.35081 17.0598,-4.8577 24.9053,-7.7931 14.2646,-5.33704 14.2646,-5.33704 7.7563,-13.35487 -32.4113,-39.9295 -39.3423,-51.98339 -39.437,-68.58641 -0.1178,-20.64947 12.9763,-34.66954 32.3799,-34.66954 11.9922,0 31.2848,11.52236 52.6747,31.45966 11.1575,10.3998 21.236,17.99771 22.3966,16.88422 1.1606,-1.11348 4.9877,-9.87495 8.5048,-19.46992 12.3009,-33.55864 10.477,-81.21632 -4.3949,-114.836776 -5.1002,-11.52989 -5.1002,-11.52989 -22.1681,5.095036 -24.8414,24.19672 -38.624,33.1124 -53.3799,34.53025 -23.9284,2.29922 -38.1572,-13.11535 -35.1948,-38.127826 1.7966,-15.16976 9.105,-28.14483 29.8146,-52.93185 15.6373,-18.71614 15.6373,-18.71614 5.8077,-23.11377 -31.367,-14.0330403 -76.4244,-15.6024403 -108.545,-3.78075 -9.5949,3.53133 -18.6114,7.58659 -20.0365,9.01169 -1.7616,1.76165 3.2201,8.89766 15.5625,22.29243 28.2225,30.62875 36.7106,53.254686 27.0133,72.007176 -13.4847,26.0765 -43.0297,19.8565 -83.0032,-17.47432 -19.26826,-17.994406 -19.26826,-17.994406 -24.41038,-5.960306 -14.47045,33.865186 -16.25876,77.005736 -4.60475,111.081726 3.82174,11.1746 7.9388,21.32736 9.14903,22.5617 1.25956,1.28467 11.4575,-6.62108 23.8503,-18.48945 11.9074,-11.40355 26.5547,-22.95978 32.5494,-25.68054 36.8893,-16.74244 62.8492,13.4505 43.832,50.97921 -3.5379,6.98174 -14.395,21.07652 -24.127,31.3217 -9.7319,10.24516 -17.6944,19.32874 -17.6944,20.18571 0,2.67466 19.7045,11.75906 33.6525,15.51497 15.4882,4.17061 51.7557,4.89651 67.147,1.34395 z"/>
</svg>
