<?xml version="1.0" encoding="UTF-8" standalone="no"?>
<svg
   xmlns:dc="http://purl.org/dc/elements/1.1/"
   xmlns:cc="http://creativecommons.org/ns#"
   xmlns:rdf="http://www.w3.org/1999/02/22-rdf-syntax-ns#"
   xmlns:svg="http://www.w3.org/2000/svg"
   xmlns="http://www.w3.org/2000/svg"
   xmlns:sodipodi="http://sodipodi.sourceforge.net/DTD/sodipodi-0.dtd"
   xmlns:inkscape="http://www.inkscape.org/namespaces/inkscape"
   version="1.1"
   id="svg2"
   width="423.13834"
   height="852.51398"
   viewBox="0 0 930.90435 1875.5308"
   sodipodi:docname="knight.svg"
   inkscape:version="1.0.1 (3bc2e813f5, 2020-09-07)">
  <style
     id="style837"></style>
  <metadata
     id="metadata8">
    <rdf:RDF>
      <cc:Work
         rdf:about="">
        <dc:format>image/svg+xml</dc:format>
        <dc:type
           rdf:resource="http://purl.org/dc/dcmitype/StillImage" />
        <dc:title></dc:title>
      </cc:Work>
    </rdf:RDF>
  </metadata>
  <defs
     id="defs6" />
  <sodipodi:namedview
     pagecolor="#ffffff"
     bordercolor="#666666"
     borderopacity="1"
     objecttolerance="10"
     gridtolerance="10"
     guidetolerance="10"
     inkscape:pageopacity="0"
     inkscape:pageshadow="2"
     inkscape:window-width="1920"
     inkscape:window-height="1017"
     id="namedview4"
     showgrid="false"
     fit-margin-top="0"
     fit-margin-left="2.7755576e-17"
     fit-margin-right="0"
     fit-margin-bottom="0"
     scale-x="2.2"
     inkscape:zoom="0.58290593"
     inkscape:cx="301.90756"
     inkscape:cy="746.73993"
     inkscape:window-x="-8"
     inkscape:window-y="-8"
     inkscape:window-maximized="1"
     inkscape:current-layer="layer1" />
  <g
     inkscape:groupmode="layer"
     id="layer1"
     inkscape:label="Image 1"
     transform="translate(-36.550224,-107.5308)">
    <path
       style="fill:#333333;fill-opacity:1;stroke-width:2.53968"
       d="m 203.43367,1981.5875 c -158.4711,-0.6739 -158.4711,-0.6739 -156.94994,-22.2289 2.27077,-32.1771 12.85217,-51.2691 35.43969,-63.9438 7.82918,-4.3933 24.83046,-4.657 344.74325,-5.3485 250.90453,-0.5422 339.26019,0.028 347.32711,2.242 13.68498,3.7558 31.62515,19.4166 38.49194,33.6015 4.18529,8.6457 5.29206,15.8101 5.29206,34.2571 0,25.7139 42.97047,24.2157 -614.34411,21.4206 z M 810.14456,1960 c -0.0312,-29.5154 -14.75502,-51.8853 -38.86252,-59.0444 -19.36054,-5.7495 -657.17178,-5.7495 -676.53234,0 -24.1075,7.1591 -38.83117,29.529 -38.86252,59.0444 -0.0142,13.3333 -0.0142,13.3333 377.1287,13.3333 377.14286,0 377.14286,0 377.12868,-13.3333 z M 82.01303,1862.8786 C 58.87522,1833.95 43.41571,1794.9413 38.04467,1751.9341 c -7.05906,-56.5238 11.17186,-130.0219 48.71094,-196.3786 11.91727,-21.0658 34.29112,-54.0379 41.7912,-61.5873 2.48845,-2.5048 67.98608,-3.1746 310.43897,-3.1746 307.28508,0 307.28508,0 316.54408,10.7937 62.13346,72.4319 91.5489,197.0857 67.36615,285.4772 -8.60554,31.4545 -21.10939,55.2852 -41.02759,78.1932 -5.64155,6.4883 -5.64155,6.4883 -349.20226,6.4883 -343.56073,0 -343.56073,0 -350.65313,-8.8674 z m 701.5709,-13.3548 c 12.40495,-16.2423 25.43444,-43.9346 32.11032,-68.246 8.18906,-29.8217 8.1453,-93.2494 -0.0899,-130.335 -11.71673,-52.7637 -31.95726,-98.2566 -59.34073,-133.3749 -14.9363,-19.1552 -14.9363,-19.1552 -316.9296,-19.1552 -301.9933,0 -301.9933,0 -307.38055,5.7143 -7.76997,8.2416 -31.64599,44.8896 -43.11483,66.1782 -13.71342,25.455 -28.74079,64.6422 -35.73495,93.1868 -8.49727,34.6792 -8.59382,91.3111 -0.20567,120.635 6.78216,23.7095 19.62906,51.3635 30.97055,66.6666 7.99942,10.7937 7.99942,10.7937 349.25067,10.7937 341.25128,0 341.25128,0 350.46469,-12.0635 z M 122.68868,1457.9129 c -27.65968,-12.5576 -28.07887,-53.5575 -0.69563,-68.0381 10.98181,-5.8073 10.98181,-5.8073 320.13208,-5.1426 309.15028,0.6646 309.15028,0.6646 318.68902,8.3853 17.43515,14.112 20.41714,38.6157 6.68536,54.935 -13.1409,15.6171 4.85105,14.8098 -328.68777,14.7489 -294.79415,-0.054 -305.85071,-0.2249 -316.12306,-4.8885 z m 634.73157,-12.6252 c 7.51713,-6.7166 8.29404,-8.7582 8.29404,-21.7957 0,-13.0374 -0.77691,-15.079 -8.29404,-21.7956 -8.29402,-7.4107 -8.29402,-7.4107 -317.75274,-7.4107 -309.4587,0 -309.4587,0 -316.45817,5.5058 -17.42672,13.7078 -16.46946,39.3683 1.84814,49.5412 4.50906,2.5042 71.87465,3.205 314.90245,3.2757 309.1663,0.09 309.1663,0.09 317.46032,-7.3207 z m -613.35463,-94.9275 c -2.10108,-3.2067 -10.24014,-18.6314 -18.0868,-34.2772 C 82.51552,1229.4197 50.96263,1118.5511 40.90126,1017.1428 30.70613,914.38652 39.24622,732.89166 59.96191,612.06353 103.46329,358.33373 213.43662,205.5416 386.03175,159.03642 c 44.94011,-12.10896 66.57651,-14.74079 132.70794,-16.14248 62.86664,-1.33249 62.86664,-1.33249 68.12083,5.34712 8.10375,10.30224 13.21385,8.31842 31.77103,-12.33401 35.52721,-39.53848 57.378,-37.83763 71.94519,5.60018 3.59411,10.71718 5.29628,22.26003 5.29628,35.91515 0,19.09799 -0.30893,20.19979 -6.06908,21.64549 -11.69293,2.93474 -9.83378,8.57803 7.24858,22.00254 24.10418,18.94274 44.82528,48.36175 70.57484,100.19947 13.60063,27.38009 30.14831,53.07469 52.33894,81.26984 16.63017,21.13008 76.52889,82.44777 86.23454,88.27738 10.31439,6.19523 22.46487,16.49857 43.17494,36.61135 18.76317,18.22205 18.76317,18.22205 17.71751,50.79365 -0.91772,28.58576 -1.92605,34.69717 -8.24,49.94159 -10.12546,24.44693 -29.14029,52.52891 -49.09971,72.51271 -26.55736,26.58982 -21.02077,26.41524 -57.51327,1.81338 -56.78872,-38.28482 -57.21933,-38.42323 -118.23911,-38.0097 -52.39315,0.3551 -66.06469,2.34027 -66.06469,9.59292 0,8.73478 -22.4897,12.03096 -60.60437,8.88244 -31.13358,-2.57184 -41.00754,-7.26705 -60.7807,-28.90202 -20.77699,-22.73334 -33.45216,-57.04302 -30.10237,-81.48236 1.76119,-12.84935 -7.60864,-24.80252 -15.61082,-19.9149 -11.45376,6.99581 -13.70616,17.73859 -12.18943,58.13752 1.56406,41.65948 4.71644,58.15429 18.44398,96.50794 56.57938,158.07807 150.34243,297.38588 245.25334,364.38348 11.23738,7.9324 11.94573,9.0908 10.76825,17.6093 -0.69323,5.015 -5.82969,51.9754 -11.41437,104.3564 -5.58469,52.3809 -11.31746,106.0952 -12.73948,119.3651 -1.42202,13.2698 -3.22748,28.4127 -4.01212,33.6508 -1.42664,9.5238 -1.42664,9.5238 -294.24465,9.5238 -292.818,0 -292.818,0 -296.63815,-5.8303 z m 583.17855,-13.8523 c 0.85211,-6.6349 7.37905,-66.2512 14.50425,-132.4806 11.60993,-107.9148 12.54042,-120.6491 8.96221,-122.6515 -10.67621,-5.9747 -45.23273,-35.5187 -64.40523,-55.063 C 618.23218,956.91929 556.92777,858.44211 513.00955,747.93654 484.16676,675.36331 479.078,651.72113 480.42738,596.56138 c 0.81222,-33.20147 1.09778,-34.77183 7.95584,-43.75337 9.13706,-11.9662 20.39238,-12.8349 30.21196,-2.33179 5.82021,6.22538 6.66364,9.60529 7.76348,31.11112 1.29054,25.23474 4.46489,35.14036 17.59802,54.91507 2.24057,3.24346 2.56988,7.0942 16.04332,19.78702 12.82124,12.24226 26.70878,16.86979 55.52455,18.50161 29.68554,1.68107 44.79291,-0.22146 44.79291,-5.64119 0,-1.99975 3.091,-5.66225 6.86888,-8.1389 6.07398,-3.98189 13.64183,-4.50298 65.39683,-4.50298 68.65864,0 64.82928,-1.10624 117.79047,34.02768 21.36066,14.17044 32.81417,20.30903 36.00402,19.29661 13.55997,-4.30375 48.78024,-50.64355 62.67212,-82.45856 7.91464,-18.126 8.35015,-20.71569 8.37953,-49.82824 0.031,-30.70858 0.031,-30.70858 -15.842,-45.90124 -8.73016,-8.35598 -24.44445,-21.53203 -34.92064,-29.28012 -21.59814,-15.97377 -76.32429,-71.23159 -95.091,-96.01486 -25.27113,-33.37298 -39.1858,-55.32297 -54.43692,-85.87271 -24.51614,-49.10865 -45.70029,-77.5079 -74.89923,-100.40917 -11.04929,-8.66616 -12.01272,-17.04092 -2.87444,-24.98656 11.87734,-10.32721 6.94667,-55.9495 -7.76208,-71.8205 -11.12333,-12.00225 -27.27779,-4.9473 -48.11093,21.01091 -16.96478,21.13819 -29.76503,25.20025 -40.84163,12.96073 -4.06385,-4.49048 -8.46547,-4.84984 -59.23454,-4.83598 -59.05671,0.016 -88.08084,3.11507 -129.8099,13.85998 C 203.43434,215.22368 89.27714,395.02058 57.33987,695.87305 47.06543,792.65933 42.76238,931.36341 48.02151,996.2399 c 9.01162,111.167 40.07407,224.4081 87.067,317.4109 17.64488,34.9206 17.64488,34.9206 304.12559,34.9206 286.48074,0 286.48074,0 288.03007,-12.0635 z"
       id="path839-4"
       sodipodi:nodetypes="sssssssssssssssssssssssssssssssssssssssssssssssssssssssssssssssssssssssssssssssssssssssssssssssccssssssssssssssssscssssss" />
  </g>
</svg>
