<?xml version="1.0" encoding="UTF-8" standalone="no"?>
<svg
   xmlns="http://www.w3.org/2000/svg"
   width="423.13834"
   height="852.51398"
   viewBox="0 0 930.90435 1875.5308">
  <path
     style="fill:currentColor"
     d="M 166.88345,1874.0567 C 8.412346,1873.3828 8.412346,1873.3828 9.933506,1851.8278 c 2.27077,-32.1771 12.85217,-51.2691 35.43969,-63.9438 7.82918,-4.3933 24.83046,-4.657 344.743254,-5.3485 250.90453,-0.5422 339.26019,0.028 347.32711,2.242 13.68498,3.7558 31.62515,19.4166 38.49194,33.6015 4.18529,8.6457 5.29206,15.8101 5.29206,34.2571 0,25.7139 42.97047,24.2157 -614.34411,21.4206 z m 606.71089,-21.5875 c -0.0312,-29.5154 -14.75502,-51.8853 -38.86252,-59.0444 -19.36054,-5.7495 -657.171784,-5.7495 -676.532344,0 -24.1075,7.1591 -38.83117,29.529 -38.86252,59.0444 -0.0142,13.3333 -0.0142,13.3333 377.128704,13.3333 377.14286,0 377.14286,0 377.12868,-13.3333 z M 45.462806,1755.3478 c -23.13781,-28.9286 -38.59732,-67.9373 -43.96836,-110.9445 -7.05906,-56.5238 11.17186,-130.0219 48.71094,-196.3786 11.91727,-21.0658 34.29112,-54.0379 41.7912,-61.5873 2.48845,-2.5048 67.986084,-3.1746 310.438974,-3.1746 307.28508,0 307.28508,0 316.54408,10.7937 62.13346,72.4319 91.5489,197.0857 67.36615,285.4772 -8.60554,31.4545 -21.10939,55.2852 -41.02759,78.1932 -5.64155,6.4883 -5.64155,6.4883 -349.20226,6.4883 -343.560734,0 -343.560734,0 -350.653134,-8.8674 z M 747.03371,1741.993 c 12.40495,-16.2423 25.43444,-43.9346 32.11032,-68.246 8.18906,-29.8217 8.1453,-93.2494 -0.0899,-130.335 -11.71673,-52.7637 -31.95726,-98.2566 -59.34073,-133.3749 -14.9363,-19.1552 -14.9363,-19.1552 -316.9296,-19.1552 -301.9933,0 -301.9933,0 -307.380554,5.7143 -7.76997,8.2416 -31.64599,44.8896 -43.11483,66.1782 -13.71342,25.455 -28.74079,64.6422 -35.73495,93.1868 -8.49727,34.6792 -8.59382,91.3111 -0.20567,120.635 6.78216,23.7095 19.62906,51.3635 30.97055,66.6666 7.99942,10.7937 7.99942,10.7937 349.250674,10.7937 341.25128,0 341.25128,0 350.46469,-12.0635 z M 86.138456,1350.3821 c -27.65968,-12.5576 -28.07887,-53.5575 -0.69563,-68.0381 10.98181,-5.8073 10.98181,-5.8073 320.132084,-5.1426 309.15028,0.6646 309.15028,0.6646 318.68902,8.3853 17.43515,14.112 20.41714,38.6157 6.68536,54.935 -13.1409,15.6171 4.85105,14.8098 -328.68777,14.7489 -294.79415,-0.054 -305.850714,-0.2249 -316.123064,-4.8885 z m 634.731574,-12.6252 c 7.51713,-6.7166 8.29404,-8.7582 8.29404,-21.7957 0,-13.0374 -0.77691,-15.079 -8.29404,-21.7956 -8.29402,-7.4107 -8.29402,-7.4107 -317.75274,-7.4107 -309.458704,0 -309.458704,0 -316.458174,5.5058 -17.42672,13.7078 -16.46946,39.3683 1.84814,49.5412 4.50906,2.5042 71.874654,3.205 314.902454,3.2757 309.1663,0.09 309.1663,0.09 317.46032,-7.3207 z M 107.5154,1242.8294 C 105.41432,1239.6227 97.275256,1224.198 89.428596,1208.5522 45.965296,1121.8889 14.412406,1011.0203 4.351036,909.612 -5.844094,806.85572 2.695996,625.36086 23.411686,504.53273 66.913066,250.80293 176.8864,98.0108 349.48153,51.50562 394.42164,39.39666 416.05804,36.76483 482.18947,35.36314 c 62.86664,-1.33249 62.86664,-1.33249 68.12083,5.34712 8.10375,10.30224 13.21385,8.31842 31.77103,-12.33401 35.52721,-39.53848 57.378,-37.8376297 71.94519,5.60018 3.59411,10.71718 5.29628,22.26003 5.29628,35.91515 0,19.09799 -0.30893,20.19979 -6.06908,21.64549 -11.69293,2.93474 -9.83378,8.57803 7.24858,22.00254 24.10418,18.94274 44.82528,48.36175 70.57484,100.19947 13.60063,27.38009 30.14831,53.07469 52.33894,81.26984 16.63017,21.13008 76.52889,82.44777 86.23454,88.27738 10.31439,6.19523 22.46487,16.49857 43.17494,36.61135 18.76317,18.22205 18.76317,18.22205 17.71751,50.79365 -0.91772,28.58576 -1.92605,34.69717 -8.24,49.94159 -10.12546,24.44693 -29.14029,52.52891 -49.09971,72.51271 -26.55736,26.58982 -21.02077,26.41524 -57.51327,1.81338 -56.78872,-38.28482 -57.21933,-38.42323 -118.23911,-38.0097 -52.39315,0.3551 -66.06469,2.34027 -66.06469,9.59292 0,8.73478 -22.4897,12.03096 -60.60437,8.88244 -31.13358,-2.57184 -41.00754,-7.26705 -60.7807,-28.90202 -20.77699,-22.73334 -33.45216,-57.04302 -30.10237,-81.48236 1.76119,-12.84935 -7.60864,-24.80252 -15.61082,-19.9149 -11.45376,6.99581 -13.70616,17.73859 -12.18943,58.13752 1.56406,41.65948 4.71644,58.15429 18.44398,96.50794 56.57938,158.07807 150.34243,297.38588 245.25334,364.38348 11.23738,7.9324 11.94573,9.0908 10.76825,17.6093 -0.69323,5.015 -5.82969,51.9754 -11.41437,104.3564 -5.58469,52.3809 -11.31746,106.0952 -12.73948,119.3651 -1.42202,13.2698 -3.22748,28.4127 -4.01212,33.6508 -1.42664,9.5238 -1.42664,9.5238 -294.24465,9.5238 -292.818,0 -292.818,0 -296.63815,-5.8303 z m 583.17855,-13.8523 c 0.85211,-6.6349 7.37905,-66.2512 14.50425,-132.4806 C 716.80813,988.5817 717.73862,975.8474 714.16041,973.845 703.4842,967.8703 668.92768,938.3263 649.75518,918.782 581.68196,849.38849 520.37755,750.91131 476.45933,640.40574 447.61654,567.83251 442.52778,544.19033 443.87716,489.03058 c 0.81222,-33.20147 1.09778,-34.77183 7.95584,-43.75337 9.13706,-11.9662 20.39238,-12.8349 30.21196,-2.33179 5.82021,6.22538 6.66364,9.60529 7.76348,31.11112 1.29054,25.23474 4.46489,35.14036 17.59802,54.91507 2.24057,3.24346 2.56988,7.0942 16.04332,19.78702 12.82124,12.24226 26.70878,16.86979 55.52455,18.50161 29.68554,1.68107 44.79291,-0.22146 44.79291,-5.64119 0,-1.99975 3.091,-5.66225 6.86888,-8.1389 6.07398,-3.98189 13.64183,-4.50298 65.39683,-4.50298 68.65864,0 64.82928,-1.10624 117.79047,34.02768 21.36066,14.17044 32.81417,20.30903 36.00402,19.29661 13.55997,-4.30375 48.78024,-50.64355 62.67212,-82.45856 7.91464,-18.126 8.35015,-20.71569 8.37953,-49.82824 0.031,-30.70858 0.031,-30.70858 -15.842,-45.90124 -8.73016,-8.35598 -24.44445,-21.53203 -34.92064,-29.28012 -21.59814,-15.97377 -76.32429,-71.23159 -95.091,-96.01486 -25.27113,-33.37298 -39.1858,-55.32297 -54.43692,-85.87271 C 696.07239,163.83708 674.88824,135.43783 645.6893,112.53656 634.64001,103.8704 633.67658,95.49564 642.81486,87.55 654.6922,77.22279 649.76153,31.6005 635.05278,15.7295 623.92945,3.7272503 607.77499,10.7822 586.94185,36.74041 569.97707,57.8786 557.17682,61.94066 546.10022,49.70114 c -4.06385,-4.49048 -8.46547,-4.84984 -59.23454,-4.83598 -59.05671,0.016 -88.08084,3.11507 -129.8099,13.85998 -190.17166,48.96774 -304.328864,228.76464 -336.266134,529.61711 -10.27444,96.78628 -14.57749,235.49036 -9.31836,300.36685 9.01162,111.167 40.07407,224.4081 87.067,317.4109 17.644884,34.9206 17.644884,34.9206 304.125594,34.9206 286.48074,0 286.48074,0 288.03007,-12.0635 z"/>
</svg>
