<?xml version="1.0" encoding="UTF-8" standalone="no"?>
<svg
   xmlns:dc="http://purl.org/dc/elements/1.1/"
   xmlns:cc="http://creativecommons.org/ns#"
   xmlns:rdf="http://www.w3.org/1999/02/22-rdf-syntax-ns#"
   xmlns:svg="http://www.w3.org/2000/svg"
   xmlns="http://www.w3.org/2000/svg"
   xmlns:sodipodi="http://sodipodi.sourceforge.net/DTD/sodipodi-0.dtd"
   xmlns:inkscape="http://www.inkscape.org/namespaces/inkscape"
   version="1.1"
   id="svg2"
   width="342.01044"
   height="759.05475"
   viewBox="0 0 752.42296 1669.9204"
   sodipodi:docname="pawn.svg"
   inkscape:version="1.0.1 (3bc2e813f5, 2020-09-07)">
  <style
     id="style837"></style>
  <metadata
     id="metadata8">
    <rdf:RDF>
      <cc:Work
         rdf:about="">
        <dc:format>image/svg+xml</dc:format>
        <dc:type
           rdf:resource="http://purl.org/dc/dcmitype/StillImage" />
        <dc:title></dc:title>
      </cc:Work>
    </rdf:RDF>
  </metadata>
  <defs
     id="defs6" />
  <sodipodi:namedview
     pagecolor="#ffffff"
     bordercolor="#666666"
     borderopacity="1"
     objecttolerance="10"
     gridtolerance="10"
     guidetolerance="10"
     inkscape:pageopacity="0"
     inkscape:pageshadow="2"
     inkscape:window-width="1920"
     inkscape:window-height="1017"
     id="namedview4"
     showgrid="false"
     fit-margin-top="0"
     fit-margin-left="0"
     fit-margin-right="0"
     fit-margin-bottom="0"
     scale-x="2.2"
     inkscape:zoom="0.22675306"
     inkscape:cx="914.44565"
     inkscape:cy="739.75074"
     inkscape:window-x="-8"
     inkscape:window-y="-8"
     inkscape:window-maximized="1"
     inkscape:current-layer="layer1" />
  <g
     inkscape:groupmode="layer"
     id="layer1"
     inkscape:label="Image 1"
     transform="translate(-61.883774,-102.18262)">
    <path
       style="fill:#333333;fill-opacity:1;stroke-width:2.53968"
       d="m 76.285271,1752.4205 c 0.08299,-29.2845 11.557503,-50.3743 33.914479,-62.3336 10.47419,-5.6029 10.47419,-5.6029 325.08115,-6.277 314.60699,-0.674 314.60699,-0.674 327.84899,5.3884 25.54141,11.6933 37.19546,30.2364 38.93595,61.9523 1.14982,20.9524 1.14982,20.9524 -362.34326,20.9524 -363.493086,0 -363.493086,0 -363.437309,-19.6825 z m 715.570419,-7.9018 c -1.55708,-21.7621 -11.33242,-37.687 -28.12328,-45.8153 -11.00239,-5.3262 -11.26695,-5.3305 -325.25626,-5.3305 -284.38809,0 -315.01717,0.3901 -322.37278,4.1066 -18.939126,9.569 -29.484905,26.1376 -31.619453,49.6778 -1.34084,14.787 -1.34084,14.787 353.638863,14.787 354.97969,0 354.97969,0 353.73291,-17.4256 z M 99.412944,1646.5533 c -33.915899,-55.961 -46.688656,-139.5361 -30.671226,-200.6888 10.289011,-39.2824 34.555282,-81.2731 64.964922,-112.4165 15.5724,-15.9481 15.5724,-15.9481 307.50373,-15.9481 291.93131,0 291.93131,0 307.73212,14.2989 17.89123,16.1906 33.07027,37.262 43.6493,60.5936 32.83705,72.4206 27.73056,195.9531 -10.56729,255.6351 -7.9118,12.3295 -7.9118,12.3295 -341.07871,12.3295 -333.1669,0 -333.1669,0 -341.532846,-13.8037 z m 675.051576,-4.1318 c 32.40089,-44.7282 40.81214,-159.8487 16.71805,-228.8113 -11.94207,-34.1809 -32.91292,-64.8444 -55.57362,-81.2598 -9.98283,-7.2315 -9.98283,-7.2315 -295.8306,-7.2315 -285.84779,0 -285.84779,0 -300.66283,15.873 -20.07114,21.5045 -41.256736,53.5517 -51.574596,78.0163 -26.607237,63.0882 -20.831178,146.3536 14.848286,214.0472 10.37413,19.6826 10.37413,19.6826 337.48811,19.6826 327.11398,0 327.11398,0 334.5872,-10.3165 z m -615.69535,-347.701 c -11.22998,-4.8062 -21.51766,-16.6851 -24.51425,-28.3059 -2.75836,-10.6968 -2.48534,-12.7919 3.12696,-23.9949 3.38206,-6.7512 9.37586,-14.62 13.31956,-17.4862 7.13099,-5.1828 8.75563,-5.2114 295.87302,-5.2114 288.70266,0 288.70266,0 296.99495,5.9145 22.0879,15.7543 22.0879,48.6072 0,64.3615 -8.29229,5.9145 -8.29229,5.9145 -294.00658,6.4054 -157.14286,0.27 -288.00001,-0.4873 -290.79366,-1.683 z m 577.86091,-11.5493 c 19.60153,-10.1364 19.25727,-41.1778 -0.58214,-52.4934 -8.50822,-4.8527 -557.8345,-6.2788 -572.37653,-1.4859 -24.26936,7.9989 -28.55174,42.0403 -6.77507,53.8562 10.63114,5.7684 568.58784,5.8869 579.73374,0.1232 z m -559.95466,-93.2904 c 0.95734,-3.1428 11.4354,-32 23.28458,-64.1269 11.84919,-32.127 32.78583,-88.899 46.52587,-126.15987 30.43566,-82.53705 47.46672,-143.64064 71.04227,-254.88363 2.94963,-13.91814 5.91469,-27.22239 6.589,-29.56502 1.11416,-3.87068 -3.59896,-4.33415 -51.65161,-5.07937 -52.87762,-0.82004 -52.87762,-0.82004 -69.81997,-9.16734 -33.27483,-16.3941 -48.98474,-43.67334 -47.1146,-81.81142 1.63439,-33.33039 18.00042,-58.56383 47.32328,-72.96388 14.27668,-7.0111 14.5391,-7.03835 73.79285,-7.66535 32.70586,-0.34608 59.87162,-1.03565 60.36839,-1.53239 0.49673,-0.49676 -7.97689,-6.09183 -18.8303,-12.43355 C 193.28194,451.5104 169.68711,277.96592 270.33349,172.5337 c 61.30223,-64.21722 152.02672,-86.551542 237.05344,-58.35721 17.91272,4.41107 70.25763,37.08164 77.62757,44.2692 9.88541,6.8236 39.46239,41.14978 53.84459,69.70899 16.91169,33.58214 22.2127,57.19476 22.48106,100.13894 0.20038,32.05587 -0.66438,41.40756 -5.45437,58.98882 -16.49204,60.53257 -54.87584,110.70696 -108.54517,141.88763 -12.69841,7.3775 -12.69841,7.3775 48.25397,8.64734 60.95238,1.26984 60.95238,1.26984 77.0383,9.99114 29.88574,16.20312 44.8017,41.60259 44.84165,76.35806 0.0409,35.45928 -16.74098,62.13306 -49.08335,78.01572 -14.06086,6.90499 -15.53898,7.08297 -65.81248,7.92429 -28.28571,0.47337 -51.42857,1.12308 -51.42857,1.44381 0,0.32074 1.63581,6.21915 3.63515,13.10761 1.99934,6.88843 12.37356,46.81015 23.05387,88.71491 10.68028,41.90476 21.72551,84.7619 24.54496,95.23809 2.81946,10.47619 6.75843,25.33333 8.75327,33.01587 14.63231,56.35182 46.50787,138.89529 89.49255,231.74599 10.28765,22.2222 10.28765,22.2222 -257.70372,22.2222 -267.99138,0 -267.99138,0 -266.25079,-5.7143 z m 516.87586,-10.1587 c -1.22926,-3.1429 -7.01595,-16 -12.85933,-28.5714 -29.24414,-62.9159 -61.09166,-146.012 -74.66956,-194.8267 -11.74177,-42.21345 -65.03099,-249.42893 -65.03099,-252.87335 0,-1.86959 18.5004,-3.00848 57.77778,-3.5568 57.38598,-0.80114 57.85529,-0.85255 69.20635,-7.5822 56.31215,-33.38547 55.21791,-109.08494 -1.98413,-137.26275 -16.93584,-8.3426 -16.93584,-8.3426 -84.93617,-9.16182 -64.27637,-0.77435 -68.00034,-1.07759 -68.00034,-5.53707 0,-3.34852 5.34418,-7.29036 18.4127,-13.58105 C 607.29578,490.26811 653.591,414.76564 653.16507,328.29362 652.66899,227.58269 587.40771,144.3921 487.35077,116.92495 c -25.72871,-7.06293 -83.63873,-6.27303 -110.16889,1.50271 -134.77316,39.50075 -199.59181,186.03878 -137.20442,310.18341 21.6693,43.11974 58.21516,77.68584 106.25681,100.50072 31.81087,15.10692 29.47175,15.85859 -52.227,16.78285 -66.97272,0.75767 -72.52707,1.1728 -83.48547,6.2398 -60.94766,28.18126 -63.28935,109.57518 -4.06296,141.22293 10.09578,5.39471 14.17706,5.77688 69.77065,6.53366 38.49611,0.52404 59.04762,1.71893 59.04762,3.43309 0,9.59228 -35.52383,160.57292 -49.35647,209.77111 -5.49247,19.53493 -44.46539,127.58717 -87.59565,242.85867 -5.69221,15.2132 -10.34947,28.0703 -10.34947,28.5714 0,0.5011 114.25743,0.9111 253.9054,0.9111 253.90541,0 253.90541,0 251.67036,-5.7143 z"
       id="path839-5"
       sodipodi:nodetypes="sssssssssssssssssssssssssssssssscssssssscsssssssssssssssssssccssssssssssssssssssssssssssssssssssssssssss" />
  </g>
</svg>
