<?xml version="1.0" encoding="UTF-8" standalone="no"?>
<svg
   xmlns:dc="http://purl.org/dc/elements/1.1/"
   xmlns:cc="http://creativecommons.org/ns#"
   xmlns:rdf="http://www.w3.org/1999/02/22-rdf-syntax-ns#"
   xmlns:svg="http://www.w3.org/2000/svg"
   xmlns="http://www.w3.org/2000/svg"
   xmlns:sodipodi="http://sodipodi.sourceforge.net/DTD/sodipodi-0.dtd"
   xmlns:inkscape="http://www.inkscape.org/namespaces/inkscape"
   version="1.1"
   id="svg2"
   width="401.70743"
   height="1057.3514"
   viewBox="0 0 883.75636 2326.1731"
   sodipodi:docname="queen.svg"
   inkscape:version="1.0.1 (3bc2e813f5, 2020-09-07)">
  <style
     id="style837"></style>
  <metadata
     id="metadata8">
    <rdf:RDF>
      <cc:Work
         rdf:about="">
        <dc:format>image/svg+xml</dc:format>
        <dc:type
           rdf:resource="http://purl.org/dc/dcmitype/StillImage" />
        <dc:title />
      </cc:Work>
    </rdf:RDF>
  </metadata>
  <defs
     id="defs6" />
  <sodipodi:namedview
     pagecolor="#ffffff"
     bordercolor="#666666"
     borderopacity="1"
     objecttolerance="10"
     gridtolerance="10"
     guidetolerance="10"
     inkscape:pageopacity="0"
     inkscape:pageshadow="2"
     inkscape:window-width="1920"
     inkscape:window-height="1017"
     id="namedview4"
     showgrid="false"
     fit-margin-top="0"
     fit-margin-left="0"
     fit-margin-right="0"
     fit-margin-bottom="0"
     scale-x="2.2"
     inkscape:zoom="0.34503864"
     inkscape:cx="416.25536"
     inkscape:cy="1236.9769"
     inkscape:window-x="1912"
     inkscape:window-y="-8"
     inkscape:window-maximized="1"
     inkscape:current-layer="layer1"
     inkscape:document-rotation="0" />
  <g
     inkscape:groupmode="layer"
     id="layer1"
     inkscape:label="Image 1"
     transform="translate(-50.449527,-75.847715)">
    <path
       style="fill:#333333;fill-opacity:1;stroke-width:2.53968"
       d="m 50.449527,2384.6956 c 0,-31.1019 11.35821,-52.0993 34.60419,-63.9712 12.37993,-6.3225 12.37993,-6.3225 403.491043,-6.3225 373.93972,0 391.52136,0.2042 400.45573,4.6488 24.01991,11.9495 35.4768,31.0776 37.1461,62.0179 1.1303,20.9524 1.1303,20.9524 -437.28336,20.9524 -438.413703,0 -438.413703,0 -438.413703,-17.3254 z m 866.031733,-6.6362 c 0,-17.6972 -3.16148,-25.8004 -14.75439,-37.8172 -17.63375,-18.2787 14.81168,-16.9514 -414.36266,-16.9514 -387.861823,0 -387.861823,0 -398.677973,5.7198 -5.94889,3.1458 -14.13033,10.2948 -18.18099,15.8865 -7.69352,10.6206 -14.47881,35.4406 -11.68156,42.7301 1.50826,3.9305 32.41047,4.2351 429.641373,4.2351 428.0162,0 428.0162,0 428.0162,-13.8029 z M 96.006497,2279.5265 c -29.47316,-39.0734 -42.55318,-79.0303 -44.70111,-136.5531 -3.15409,-84.4685 23.23946,-157.8288 76.067673,-211.4286 16.89609,-17.1429 16.89609,-17.1429 367.63514,-17.1429 350.73901,0 350.73901,0 365.57043,14.1468 28.23294,26.9296 52.65465,70.8202 64.95466,116.7362 9.6103,35.8752 11.5631,97.8481 4.1985,133.244 -8.3528,40.146 -27.48106,82.2855 -46.97765,103.4921 -5.25353,5.7143 -5.25353,5.7143 -392.90465,5.7143 -387.6511,0 -387.6511,0 -393.842993,-8.2088 z m 789.449183,-15.9182 c 64.69351,-97.6643 51.07671,-242.762 -30.80523,-328.254 -10.33788,-10.7936 -10.33788,-10.7936 -358.89449,-10.7936 -348.55662,0 -348.55662,0 -361.4113,12.8546 -63.282023,63.282 -90.725973,170.522 -67.165683,262.4564 4.975,19.4129 23.33555,58.5287 32.60336,69.459 7.005443,8.2622 7.005443,8.2622 392.133643,7.6191 385.1282,-0.6431 385.1282,-0.6431 393.5397,-13.3415 z M 127.12192,1883.0296 c -15.39108,-8.5408 -21.05292,-34.8138 -10.4164,-48.3359 11.94897,-15.1907 -12.66356,-14.26 377.12764,-14.26 357.28665,0 357.28665,0 365.90196,5.3245 20.53019,12.6884 21.44252,39.9931 1.8512,55.4036 -6.74245,5.3036 -6.74245,5.3036 -367.66978,5.2136 -288.66771,-0.072 -362.102,-0.7418 -366.79462,-3.3458 z M 857.5723,1872.525 c 14.22875,-11.9727 11.20044,-33.7011 -5.67997,-40.7542 -13.69272,-5.7212 -706.64389,-5.5914 -717.71641,0.1344 -16.52809,8.547 -18.8093,28.5793 -4.61467,40.5233 7.6272,6.4179 7.6272,6.4179 364.06287,6.4179 356.43568,0 356.43568,0 363.94818,-6.3214 z m -697.91643,-81.1653 c 0,-0.6257 5.79109,-11.7685 12.86908,-24.7619 43.49954,-79.8544 93.13648,-185.295 112.74517,-239.4975 22.19055,-61.3393 41.36691,-164.0462 59.74699,-320 2.79861,-23.746 5.7372,-48.0409 6.53019,-53.9886 1.44178,-10.8141 1.44178,-10.8141 149.21963,-10.1588 166.12698,0.7367 147.71078,-16.5729 165.5219,155.576 17.55614,169.6846 40.0769,241.1892 139.00843,441.36 13.65912,27.6369 24.83479,50.7798 24.83479,51.4286 0,0.6488 -150.85714,1.1797 -335.23809,1.1797 -184.38095,0 -335.23809,-0.5119 -335.23809,-1.1375 z m 655.23809,-9.9023 c 0,-0.4845 -12.45588,-26.4845 -27.6797,-57.7777 -15.22385,-31.2933 -36.76584,-78.0397 -47.87111,-103.881 -54.44421,-126.6884 -65.18222,-166.0752 -80.64506,-313.6544 -7.1712,-68.4428 -7.75707,-125.531 -21.9057,-140.4987 -12.39533,-13.1129 0.82191,-16.4128 -136.93414,-15.6882 -115.60568,0.6081 -139.56746,0.5898 -139.56746,3.4352 0,5.8341 -14.79815,122.8104 -20.28825,160.3744 -21.27599,145.573 -34.34969,195.2912 -76.07546,289.3086 -16.21998,36.5472 -64.3858,133.6056 -80.09298,161.3944 -4.91707,8.6992 -8.94013,16.2783 -8.94013,16.8426 0,0.5642 144,1.0258 319.99999,1.0258 176,0 320,-0.3964 320,-0.881 z M 245.56754,1120.8693 c -54.13572,-15.0587 -65.68638,-97.3218 -18.25411,-130.00451 14.21721,-9.7962 14.21721,-9.7962 56.45442,-11.0661 42.23723,-1.2698 42.23723,-1.2698 42.12066,-91.4285 C 325.7732,799.2825 325.6932,797.92148 319.14115,773.80618 310.3556,741.47017 296.627,710.07111 277.43847,678.42687 253.39101,638.76962 238.54822,619.7648 173.40005,545.21528 c -44.91994,-51.40219 -53.51364,-66.55635 -51.08536,-90.08409 3.96255,-38.39338 32.09982,-59.45949 79.41795,-59.45949 17.69932,0 20.62432,0.76813 33.73091,8.85796 50.12301,30.93765 108.75869,26.16831 156.51633,-12.73082 13.61933,-11.0931 13.61933,-11.0931 17.60937,-5.00353 14.15723,21.60668 52.91668,39.35259 85.95126,39.35259 29.53575,0 67.93453,-16.31317 82.20821,-34.92498 7.93414,-10.3455 7.93414,-10.3455 20.13805,-0.26078 30.23525,24.98494 74.2786,38.44897 107.08544,32.7359 17.41927,-3.03344 43.56683,-13.67479 56.86039,-23.14065 7.06006,-5.0272 10.0719,-5.43045 32.32812,-4.32828 46.22428,2.2891 66.9553,17.89763 74.16181,55.83693 3.05549,16.08577 -1.57021,30.65662 -16.14136,50.84516 -11.83721,16.40059 -16.86692,22.36374 -56.93303,67.4987 -58.77346,66.20902 -99.19352,128.5645 -116.22379,179.29682 -13.63208,40.60925 -14.45593,48.01925 -15.76935,141.83807 -1.23553,88.2539 -1.23553,88.2539 35.8643,88.2539 32.61153,0 38.49839,0.6574 48.65986,5.4339 26.57049,12.4896 37.77664,32.37931 37.71883,66.94711 -0.0564,33.8066 -12.30384,54.8469 -38.99075,66.9843 -12.34131,5.6129 -481.15458,7.2089 -500.9397,1.7053 z m 499.78237,-12.5681 c 22.08165,-10.2818 31.48774,-27.7814 31.39304,-58.4053 -0.0681,-22.0341 -5.3153,-34.7505 -19.68498,-47.7059 -13.97768,-12.60211 -23.54123,-14.74141 -65.97354,-14.75801 -36.19047,-0.014 -36.19047,-0.014 -36.19047,-87.3527 0,-92.10516 1.408,-107.78552 13.09239,-145.80515 15.01598,-48.86025 57.57763,-118.32153 106.12983,-173.2056 83.63403,-94.54101 90.56881,-105.48298 84.23718,-132.91307 -6.1217,-26.52072 -22.48193,-38.4348 -59.13024,-43.06068 -18.15395,-2.29143 -23.74397,-2.20178 -27.98841,0.44892 -41.41986,25.86712 -74.13364,33.30052 -111.7713,25.3972 -16.64463,-3.49511 -45.47675,-16.51708 -60.22443,-27.20025 -11.07899,-8.02558 -11.07899,-8.02558 -21.20818,1.12553 -13.50926,12.2048 -37.53148,23.13524 -61.65839,28.05542 -33.73998,6.88056 -76.79431,-4.60927 -101.04949,-26.96693 -11.37981,-10.48955 -11.37981,-10.48955 -29.36231,1.14329 -53.19878,34.41412 -116.33783,35.25661 -159.76666,2.13183 -8.14115,-6.20957 -9.77225,-6.49476 -28.06696,-4.90715 -42.76205,3.71086 -60.74428,16.69336 -66.53875,48.03851 -4.27994,23.15233 4.16763,36.57336 70.03392,111.26606 24.12033,27.35256 48.69558,57.34672 57.08133,69.66786 22.79279,33.4894 30.93097,46.79658 42.42349,69.36887 7.38078,14.49651 16.78682,36.86906 20.9023,49.71675 13.94545,43.53484 14.84241,55.29847 13.49961,177.04949 -0.63492,57.568 -0.63492,57.568 -44.44445,58.4211 -47.38798,0.9228 -51.85488,2.0302 -66.44801,16.47351 -15.70386,15.5427 -21.48844,46.5667 -13.60319,72.957 3.80749,12.7429 21.22041,30.8714 32.87886,34.23 5.08945,1.4661 103.75563,2.5131 248.44218,2.6362 239.99999,0.2042 239.99999,0.2042 252.99563,-5.8468 z M 477.98267,370.19544 C 377.21772,352.10779 323.74712,235.87699 376.02085,148.55773 431.84281,55.311431 566.7318,50.876241 626.5555,140.32008 c 64.41749,96.31213 0.58646,224.79515 -114.81097,231.09865 -11.36305,0.62067 -26.55589,0.0701 -33.76186,-1.22329 z m 60.98916,-11.56295 c 89.93242,-23.18723 133.2342,-131.32447 83.37965,-208.22335 -25.85084,-39.874 -73.887,-67.030209 -118.56863,-67.030209 -74.27276,0 -138.48607,64.694889 -138.38255,139.420389 0.12749,92.01938 85.22182,158.61232 173.57153,135.83317 z"
       id="path839-0"
       sodipodi:nodetypes="sssssssssssssssssssssssssssssssssssssssssssssssssssssssssssssssssssssssssssssssssssssssssssssssssssssssssssssssssssssssssssssssscssscsssss" />
  </g>
</svg>
