<?xml version="1.0" encoding="UTF-8" standalone="no"?>
<svg
   xmlns:dc="http://purl.org/dc/elements/1.1/"
   xmlns:cc="http://creativecommons.org/ns#"
   xmlns:rdf="http://www.w3.org/1999/02/22-rdf-syntax-ns#"
   xmlns:svg="http://www.w3.org/2000/svg"
   xmlns="http://www.w3.org/2000/svg"
   xmlns:sodipodi="http://sodipodi.sourceforge.net/DTD/sodipodi-0.dtd"
   xmlns:inkscape="http://www.inkscape.org/namespaces/inkscape"
   version="1.1"
   id="svg2"
   width="434.15408"
   height="824.24243"
   viewBox="0 0 955.13898 1813.3333"
   sodipodi:docname="rook.svg"
   inkscape:version="1.0.1 (3bc2e813f5, 2020-09-07)">
  <style
     id="style837"></style>
  <metadata
     id="metadata8">
    <rdf:RDF>
      <cc:Work
         rdf:about="">
        <dc:format>image/svg+xml</dc:format>
        <dc:type
           rdf:resource="http://purl.org/dc/dcmitype/StillImage" />
        <dc:title></dc:title>
      </cc:Work>
    </rdf:RDF>
  </metadata>
  <defs
     id="defs6" />
  <sodipodi:namedview
     pagecolor="#ffffff"
     bordercolor="#666666"
     borderopacity="1"
     objecttolerance="10"
     gridtolerance="10"
     guidetolerance="10"
     inkscape:pageopacity="0"
     inkscape:pageshadow="2"
     inkscape:window-width="1920"
     inkscape:window-height="1017"
     id="namedview4"
     showgrid="false"
     fit-margin-top="0"
     fit-margin-left="0"
     fit-margin-right="0"
     fit-margin-bottom="0"
     scale-x="2.2"
     inkscape:zoom="0.30418997"
     inkscape:cx="936.96108"
     inkscape:cy="866.52214"
     inkscape:window-x="-8"
     inkscape:window-y="-8"
     inkscape:window-maximized="1"
     inkscape:current-layer="layer1" />
  <g
     inkscape:groupmode="layer"
     id="layer1"
     inkscape:label="Image 1"
     transform="translate(-42.22927,-67.21764)">
    <path
       style="fill:#333333;fill-opacity:1;stroke-width:2.53968"
       d="m 57.02865,1855.7891 c 0.16766,-37.243 9.30442,-55.7305 33.97747,-68.7507 12.89519,-6.8049 12.89519,-6.8049 426.86342,-6.8049 413.96823,0 413.96823,0 424.86643,5.8193 26.2624,14.0231 36.0859,33.3031 36.0859,70.8236 0,23.6746 0,23.6746 -460.95233,23.6746 -460.95236,0 -460.95236,0 -460.84089,-24.7619 z m 913.40762,-5.1006 c -2.3742,-30.7876 -10.6882,-45.4871 -31.8273,-56.2715 -10.3784,-5.2946 -10.3784,-5.2946 -420.3281,-5.2946 -357.27587,0 -411.11242,0.4858 -418.99874,3.7809 -13.51041,5.645 -26.60816,20.5319 -30.96131,35.1906 -3.87045,13.0332 -3.064671,34.8772 -0.02223,37.9196 0.93121,0.9312 203.03136,4.3788 451.64049,4.3788 452.01659,0 452.01659,0 450.49719,-19.7038 z M 97.5143,1737.0029 c -55.88484,-82.8177 -69.56296,-166.2808 -40.29835,-245.898 25.089282,-55.4534 61.94087,-118.5018 96.33345,-161.5116 20.55187,-25.5502 20.55187,-25.5502 376.5891,-25.5502 356.03727,0 356.03727,0 369.11127,17.1432 46.3609,60.7907 80.4525,129.3099 93.8415,188.6076 5.7399,25.421 5.6952,75.7103 -0.091,102.3997 -8.7018,40.1379 -29.4411,88.9971 -53.81,126.7701 -11.0595,17.1428 -11.0595,17.1428 -419.92222,17.1428 -408.86272,0 -408.86272,0 -421.75372,-19.1036 z m 834.92337,-4.3884 c 56.5179,-88.9518 70.24583,-172.2367 42.1758,-255.873 -14.3432,-42.7364 -45.3941,-100.1554 -77.6338,-143.5594 -15.9355,-21.4538 -15.9355,-21.4538 -366.8217,-21.4869 -350.88616,-0.033 -350.88616,-0.033 -369.072,22.7716 -43.43787,54.4703 -84.09663,124.3314 -99.1247,170.3191 -19.82422,60.6645 -13.35187,120.6127 20.27907,187.8286 10.98708,21.9591 29.27716,46.4927 34.32222,49.876 1.53027,1.0263 183.29973,5.9367 404.18328,5.9581 401.60643,0.039 401.60643,0.039 411.69183,-15.8341 z M 165.17055,1282.5342 c -39.22132,-13.9805 -43.53139,-65.6001 -7.35537,-88.0918 9.57819,-5.955 9.57819,-5.955 366.40357,-5.955 397.38492,0 363.34422,-1.524 380.69702,17.0435 23.4866,25.1306 10.2311,69.3426 -23.3235,77.7917 -18.6548,4.6974 -703.14497,3.9441 -716.42172,-0.7884 z m 723.22822,-12.1838 c 25.9986,-14.9052 25.5646,-49.4279 -0.8451,-67.2254 -8.6077,-5.8007 -8.6077,-5.8007 -364.83303,-5.1398 -355.06797,0.6588 -356.24866,0.6779 -363.39536,5.889 -18.48049,13.4751 -22.65862,38.9731 -9.26383,56.5346 12.58353,16.498 -11.66057,15.4934 375.42714,15.5566 353.01588,0.058 353.01588,0.058 362.91018,-5.615 z M 206.75844,1161.043 c 0,-1.8246 14.28572,-141.3604 31.74604,-310.07975 17.46031,-168.71933 31.74603,-307.22648 31.74603,-307.79369 0,-0.56722 113.12108,-1.03129 251.38018,-1.03129 251.38018,0 251.38018,0 252.56928,5.71428 0.654,3.14286 14.9684,140.57143 31.8096,305.39683 16.8414,164.82542 31.0267,302.25392 31.523,305.39672 0.9024,5.7143 0.9024,5.7143 -314.93584,5.7143 -258.22843,0 -315.83829,-0.6051 -315.83829,-3.3174 z m 620.37763,-6.2064 c 0.5472,-1.0476 -6.7064,-76.1905 -16.119,-166.98403 -9.4127,-90.79367 -22.9411,-221.65081 -30.0631,-290.79367 -7.122,-69.14286 -13.6158,-130 -14.4305,-135.23809 -1.4814,-9.52381 -1.4814,-9.52381 -245.06764,-9.52381 -176.48106,0 -243.58628,0.77498 -243.58628,2.8131 0,1.5472 -8.6192,85.83292 -19.15375,187.30159 -22.90326,220.60358 -38.67008,373.71991 -40.89944,397.18681 -1.62858,17.1429 -1.62858,17.1429 303.34812,17.1429 167.73719,0 305.42439,-0.8572 305.97159,-1.9048 z M 218.18702,515.06111 c -35.76329,-18.85392 -39.14117,-65.1906 -6.44995,-88.4784 10.69555,-7.61905 10.69555,-7.61905 300.63622,-8.37747 206.59528,-0.54039 292.72378,0.05 299.62238,2.05402 25.8292,7.50313 41.2735,35.808 33.7185,61.79626 -5.05,17.37141 -11.2788,25.13727 -25.5382,31.83995 -11.4574,5.38565 -11.4574,5.38565 -302.91366,5.28397 -260.71992,-0.091 -292.25973,-0.52526 -299.07529,-4.11833 z m 597.21655,-8.30085 c 29.6225,-13.45041 31.5341,-54.07555 3.4442,-73.19342 -8.3961,-5.71429 -8.3961,-5.71429 -298.91529,-5.71429 -282.63535,0 -290.78165,0.13384 -300.18885,4.93306 -30.34559,15.48117 -28.36284,59.66933 3.32313,74.06039 9.88671,4.49031 23.36756,4.70453 296.07262,4.70453 274.54459,0 286.12669,-0.18717 296.26419,-4.79027 z M 225.49186,373.81258 C 187.98855,334.61095 154.24098,289.55046 137.57493,256.42398 120.11045,221.71051 104.19832,153.05844 100.6374,97.05891 98.73984,67.21764 98.73984,67.21764 203.0057,67.21764 c 104.26586,0 104.26586,0 98.56173,65.39682 -3.13729,35.96825 -5.75273,67.96825 -5.81211,71.11111 -0.10799,5.71429 -0.10799,5.71429 71.00312,5.71429 66.0704,0 71.10392,-0.31505 71.00967,-4.44445 -0.0559,-2.44444 -3.82192,-34.44444 -8.36917,-71.11111 -8.2677,-66.66666 -8.2677,-66.66666 90.26017,-66.66666 98.52786,0 98.52786,0 98.51236,6.98412 -0.01,3.84127 -3.4302,33.84127 -7.6035,66.66667 -4.1734,32.8254 -7.5949,61.68254 -7.6035,64.12698 -0.015,4.12736 5.0579,4.44445 71.0955,4.44445 63.9922,0 71.1111,-0.41379 71.1111,-4.13325 0,-4.61846 -9.4445,-113.67103 -11.1345,-128.56516 -1.0805,-9.52381 -1.0805,-9.52381 103.1933,-9.52381 104.2738,0 104.2738,0 102.7121,28.57142 -6.3579,116.32123 -37.1797,184.96158 -124.8741,278.09524 -22.1201,23.49206 -22.1201,23.49206 -294.57656,23.49206 -272.45652,0 -272.45652,0 -294.99945,-23.56378 z m 583.51801,-6.27749 c 83.8383,-87.78148 111.7472,-150.04121 122.9526,-274.28571 1.6607,-18.4127 1.6607,-18.4127 -92.4155,-18.4127 -51.7418,0 -94.6015,0.85715 -95.2436,1.90477 -0.6422,1.04761 1.5393,32.19047 4.8478,69.20634 3.3085,37.01588 6.0521,68.73016 6.097,70.47619 0.064,2.47525 -17.8219,3.17461 -81.1882,3.17461 -81.2698,0 -81.2698,0 -81.149,-5.71429 0.067,-3.14286 3.8101,-35.2087 8.3193,-71.25742 4.5092,-36.04873 7.6929,-66.04873 7.075,-66.66667 -1.5171,-1.5171 -168.55646,3.27225 -170.07486,4.79064 -0.65935,0.65936 -3.24482,26.51545 1.33422,63.22117 4.57905,36.70573 8.35662,68.73769 8.39459,71.18213 0.0643,4.14164 -5.46776,4.44444 -81.20078,4.44444 -75.74237,0 -81.26346,-0.30227 -81.17625,-4.44444 0.0516,-2.44444 4.23499,-35.4663 7.52099,-71.78376 3.28602,-36.31746 -1.14188,-61.652593 -1.76817,-62.700213 -0.62626,-1.04761 -37.67015,-5.833497 -88.61568,-5.833497 -77.93898,0 -92.84904,0.57541 -94.0206,3.62846 -2.21593,5.77461 6.11659,71.28453 12.7829,100.49853 15.61342,68.42334 44.28172,118.2309 105.61463,183.49206 23.2714,24.7619 23.2714,24.7619 293.1933,24.7619 269.92191,0 269.92191,0 288.72031,-19.68254 z"
       id="path839-6"
       sodipodi:nodetypes="ssssssssssssssssccsssssssssssssssssssssssscssssccssssssssssssssssssssssssssssssssssssssssscsscscssssssssssssscscsssssscssssssss" />
  </g>
</svg>
